M48
;DRILL file {KiCad 4.0.7} date 05/05/18 13:58:35
;FORMAT={3:3/ absolute / metric / suppress leading zeros}
FMAT,2
METRIC,TZ
T1C0.400
T2C0.500
T3C0.750
T4C0.800
T5C0.900
T6C1.000
T7C1.100
T8C3.200
T9C2.000
T10C3.200
T11C3.500
%
G90
G05
M71
T1
X52705Y-186055
X56515Y-186055
X64770Y-180340
X66675Y-186690
X67310Y-191770
X69215Y-184150
X69850Y-191770
X70485Y-191135
X72390Y-193040
X73025Y-192405
X90170Y-192405
X90805Y-191770
X90805Y-193040
X97155Y-191770
X97155Y-193040
X97790Y-192405
X104775Y-191770
X105410Y-192405
X105410Y-193675
X106045Y-198120
X107315Y-185420
X107950Y-192405
X107950Y-193675
X108585Y-191770
X112395Y-206375
X112395Y-211455
X112395Y-216535
X112395Y-222250
X112395Y-227330
X112395Y-232410
X114300Y-206375
X114300Y-211455
X114300Y-216535
X114300Y-222250
X114300Y-227330
X114300Y-232410
X116840Y-200025
X129540Y-195580
X133350Y-195580
X191770Y-206375
X192405Y-211455
X192405Y-216535
X192405Y-222250
X192405Y-227330
X192405Y-232410
X192405Y-238125
X196215Y-220980
X197485Y-217170
X198120Y-222250
X198120Y-227330
X198120Y-232410
X198755Y-221615
X199390Y-215265
X200025Y-206375
X200660Y-216535
X203200Y-232410
X211455Y-203835
X213360Y-210185
X214630Y-212725
X216535Y-203835
X216535Y-208280
X216535Y-215265
X216535Y-219075
X217805Y-214630
X217805Y-215900
X217805Y-220980
X218440Y-218440
X219075Y-215900
X219075Y-220345
X219710Y-206375
X232410Y-206375
X232410Y-222250
X232410Y-223520
X232410Y-227330
X232410Y-233680
X233045Y-238125
X234315Y-206375
X234315Y-211455
X234315Y-216535
X234315Y-222250
X234315Y-227330
X234315Y-232410
X234315Y-233680
X236500Y-201500
X315595Y-201295
X318135Y-201295
X320675Y-238125
X322580Y-206375
X322580Y-211455
X322580Y-216535
X322580Y-222250
X322580Y-227330
X322580Y-232410
X322580Y-233680
X323215Y-238125
X324485Y-206375
X324485Y-211455
X324485Y-216535
X324485Y-222250
X324485Y-227330
X324485Y-232410
X324485Y-233680
X393700Y-199390
X394335Y-198755
X394970Y-198120
X394970Y-233680
X395605Y-198755
X396240Y-212090
X396875Y-207645
X397510Y-201930
X398145Y-197485
X399415Y-232410
X400050Y-226060
X400685Y-203200
X403225Y-219075
X403860Y-220980
X404495Y-219075
X405765Y-219075
X408940Y-200660
X408940Y-214630
X409575Y-200025
X409575Y-213995
X410210Y-200660
X410210Y-214630
X410845Y-200025
X410845Y-215265
X417830Y-223520
X417830Y-228600
X417830Y-233680
X420370Y-213360
X422275Y-201930
T2
X20600Y-175500
X21303Y-173803
X21303Y-177197
X23000Y-173100
X23000Y-177900
X24697Y-173803
X24697Y-177197
X25400Y-175500
X226100Y-181500
X226100Y-228500
X226803Y-179803
X226803Y-183197
X226803Y-226803
X226803Y-230197
X228500Y-179100
X228500Y-183900
X228500Y-226100
X228500Y-230900
X230197Y-179803
X230197Y-183197
X230197Y-226803
X230197Y-230197
X230900Y-181500
X230900Y-228500
X425600Y-175500
X425600Y-234500
X426303Y-173803
X426303Y-177197
X426303Y-232803
X426303Y-236197
X428000Y-173100
X428000Y-177900
X428000Y-232100
X428000Y-236900
X429697Y-173803
X429697Y-177197
X429697Y-232803
X429697Y-236197
X430400Y-175500
X430400Y-234500
T3
X23945Y-186055
X64770Y-182880
X396875Y-198120
X398145Y-192405
X398145Y-194945
X408940Y-195580
T4
X53975Y-180975
X53975Y-191135
X69215Y-187960
X69215Y-198120
X73025Y-177800
X73025Y-185420
X73025Y-187960
X73025Y-198120
X75565Y-177800
X75565Y-185420
X78105Y-177800
X78105Y-185420
X80645Y-177800
X80645Y-185420
X83185Y-177800
X83185Y-185420
X85725Y-177800
X85725Y-185420
X88265Y-177800
X88265Y-185420
X90805Y-177800
X90805Y-185420
X91440Y-190500
X91440Y-195580
X91440Y-198080
X93345Y-177800
X93345Y-185420
X95885Y-177800
X95885Y-185420
X96320Y-190500
X96520Y-195580
X96520Y-198080
X98425Y-177800
X98425Y-185420
X100965Y-177800
X100965Y-185420
X103505Y-177800
X103505Y-185420
X106045Y-177800
X106045Y-185420
X116840Y-193040
X127000Y-193040
X131445Y-184150
X131445Y-194310
X213995Y-206375
X213995Y-208915
X213995Y-211455
X213995Y-213995
X213995Y-216535
X213995Y-219075
X213995Y-221615
X221615Y-206375
X221615Y-208915
X221615Y-211455
X221615Y-213995
X221615Y-216535
X221615Y-219075
X221615Y-221615
X224155Y-210185
X224155Y-220345
X226060Y-210185
X226060Y-220345
X227965Y-210185
X227965Y-220345
X229870Y-210185
X229870Y-220345
X307975Y-173990
X307975Y-177165
X318135Y-173990
X318135Y-177165
X322580Y-180380
X322580Y-182880
X322580Y-186730
X322580Y-189230
X351790Y-180380
X351790Y-182880
X351790Y-186730
X351790Y-189230
X412750Y-187960
X412750Y-198120
X414655Y-187960
X414655Y-198120
X416560Y-187960
X416560Y-198120
X418465Y-187960
X418465Y-198120
X420370Y-187960
X420370Y-198120
X422275Y-187960
X422275Y-198120
X424180Y-187960
X424180Y-198120
T5
X322580Y-173990
X322580Y-176530
X351790Y-173990
X351790Y-176530
T6
X118190Y-184785
X120690Y-184785
X123190Y-184785
X249555Y-180340
X257155Y-180340
X328930Y-194310
X331470Y-194310
X334010Y-194310
X340360Y-194310
X342900Y-194310
X345440Y-194310
T7
X142240Y-175260
X142240Y-179760
X148740Y-175260
X148740Y-179760
X157480Y-175260
X157480Y-179760
X163980Y-175260
X163980Y-179760
X172720Y-175260
X172720Y-179760
X179220Y-175260
X179220Y-179760
X187960Y-175260
X187960Y-179760
X194460Y-175260
X194460Y-179760
X203200Y-175260
X203200Y-179760
X209700Y-175260
X209700Y-179760
X217805Y-175260
X217805Y-179760
X224305Y-175260
X224305Y-179760
X233680Y-175260
X233680Y-179760
X240180Y-175260
X240180Y-179760
T8
X23000Y-175500
X228500Y-181500
X228500Y-228500
X428000Y-175500
X428000Y-234500
T9
X116290Y-177785
X125090Y-177785
T10
X23000Y-234500
T11
X331470Y-177650
X342900Y-177650
T6
X359790Y-180150G85X359790Y-182150
G05
X365490Y-178150G85X363490Y-178150
G05
X365490Y-184150G85X363490Y-184150
G05
T0
M30
