M48
;DRILL file {KiCad 4.0.7} date 05/08/18 23:55:36
;FORMAT={3:3/ absolute / metric / suppress leading zeros}
FMAT,2
METRIC,TZ
T1C0.400
T2C0.750
T3C0.800
T4C0.900
T5C1.000
T6C1.100
T7C3.200
%
G90
G05
M71
T1
X73660Y-186690
X80010Y-186690
X97000Y-211250
X97000Y-233250
X97500Y-222250
X99750Y-208000
X99750Y-209750
X99750Y-218750
X99750Y-220500
X99750Y-229250
X99750Y-230750
X114300Y-213995
X114300Y-215900
X114935Y-214630
X114935Y-225425
X114935Y-233045
X115570Y-224790
X115570Y-226060
X115570Y-234315
X116205Y-200660
X116840Y-200025
X116840Y-236855
X117475Y-199390
X119380Y-200660
X120015Y-200025
X120650Y-199390
X133985Y-193675
X136525Y-194945
X186500Y-231500
X186690Y-210185
X187000Y-221000
X188595Y-200660
X189200Y-230700
X189230Y-200025
X189865Y-199390
X190250Y-230750
X193000Y-219000
X193040Y-200025
X193040Y-203835
X193040Y-205105
X193040Y-208280
X193040Y-212725
X193040Y-214630
X193040Y-216535
X193040Y-224155
X193040Y-225425
X193040Y-226695
X193040Y-233045
X193040Y-236855
X194000Y-209250
X194250Y-219750
X195750Y-202750
X196000Y-200400
X196750Y-202500
X197000Y-210000
X197000Y-220750
X197250Y-219750
X197300Y-230200
X197500Y-236250
X197500Y-237500
X197750Y-209250
X200250Y-217000
X200250Y-220000
X200500Y-227500
X201000Y-233750
X201000Y-238500
X201250Y-227500
X201500Y-231500
X201500Y-233000
X201600Y-225400
X201750Y-207750
X202500Y-209250
X202600Y-213400
X202750Y-210250
X202750Y-233750
X202800Y-211700
X203250Y-228750
X203300Y-212300
X203500Y-234750
X204200Y-233200
X204500Y-229700
X204750Y-232500
X205750Y-205250
X205750Y-218750
X206000Y-224250
X206250Y-220750
X206300Y-229600
X206500Y-208750
X206500Y-227500
X206500Y-228500
X207000Y-238250
X207010Y-197485
X207250Y-205250
X207250Y-221750
X207500Y-238750
X207750Y-222500
X207750Y-226500
X207750Y-229750
X208500Y-228500
X208700Y-211100
X208750Y-207500
X209000Y-227750
X209250Y-224000
X209250Y-226000
X209300Y-219400
X209300Y-222000
X209700Y-220100
X209750Y-234750
X210000Y-208000
X212000Y-213500
X212000Y-225250
X212000Y-228750
X212000Y-229500
X212000Y-232500
X212090Y-222885
X212090Y-224155
X212090Y-227330
X212598Y-223520
X212900Y-205200
X213000Y-206000
X213100Y-217600
X213100Y-222100
X213200Y-209400
X213360Y-196215
X213500Y-228000
X214300Y-206700
X214500Y-230000
X214630Y-222250
X214630Y-223520
X214630Y-225425
X214884Y-228029
X215500Y-205500
X215900Y-197485
X215900Y-208700
X216500Y-233000
X217100Y-208700
X217100Y-209500
X217170Y-196215
X217750Y-227500
X217800Y-221700
X217900Y-202000
X217900Y-208600
X218200Y-218700
X218310Y-228560
X218400Y-215400
X218500Y-211800
X218500Y-212700
X218500Y-224500
X218600Y-213500
X218600Y-221700
X218900Y-218700
X219000Y-233750
X219250Y-223750
X219300Y-215400
X219500Y-221600
X219700Y-227900
X219710Y-201930
X219750Y-227000
X219900Y-218000
X220200Y-215400
X220250Y-228500
X220345Y-236220
X220750Y-235000
X221000Y-236750
X221200Y-217600
X222020Y-224560
X222500Y-234000
X223250Y-205250
X223520Y-200660
X224300Y-213500
X224500Y-234500
X224900Y-215900
X224900Y-218200
X225250Y-205250
X225250Y-224750
X225500Y-216400
X225500Y-217700
X226500Y-235500
X226695Y-200025
X227000Y-225500
X228100Y-230900
X228250Y-209750
X228250Y-220500
X229235Y-199390
X229250Y-236250
X229500Y-202000
X230250Y-202250
X232750Y-202000
X232750Y-204000
X232750Y-205750
X232750Y-212250
X232750Y-214500
X232750Y-225250
X233000Y-223500
X233000Y-227500
X233000Y-231750
X233000Y-234500
X233000Y-236500
X233250Y-215750
X235250Y-209000
X235250Y-209750
X235500Y-219500
X235750Y-220500
X235750Y-231750
X236100Y-229800
X236250Y-210250
X236250Y-221250
X236250Y-230500
X237000Y-232200
X239750Y-208500
X239750Y-219000
X239750Y-229750
X239750Y-233750
X250190Y-195580
X250825Y-193675
X252095Y-193675
X264795Y-193040
X265430Y-189865
X265430Y-191135
X265430Y-192405
X266065Y-190500
X266065Y-191770
X266700Y-196850
X271780Y-176530
X276860Y-177165
X287020Y-177800
X294005Y-185420
X295275Y-190500
X298450Y-188595
X307975Y-182245
X307975Y-194945
X310515Y-187960
X311150Y-185420
X311785Y-194945
X312420Y-188595
X313055Y-182245
X314325Y-192405
X316865Y-187325
X317500Y-194945
X318500Y-203250
X319000Y-235250
X319250Y-215250
X319250Y-224500
X319250Y-233750
X319405Y-184785
X319500Y-204750
X319500Y-213750
X319500Y-226000
X320040Y-186055
X320040Y-193040
X320250Y-204000
X320250Y-214500
X320250Y-225250
X320250Y-234500
X321310Y-187325
X323215Y-175260
X324485Y-186690
X325750Y-209250
X325750Y-220000
X325755Y-180975
X326000Y-206500
X326000Y-210750
X326000Y-217250
X326000Y-228000
X326250Y-232000
X326390Y-187960
X326500Y-221500
X327000Y-229750
X327025Y-178435
X327660Y-182245
X328930Y-182245
X330200Y-180975
X330200Y-187325
X331470Y-179705
X331470Y-182245
X333375Y-181610
X338455Y-181610
X339090Y-182245
X339090Y-191135
X339725Y-191770
X340360Y-174625
X340360Y-192405
X340995Y-193040
X341630Y-193675
X342265Y-194310
X342900Y-178435
X343535Y-175260
X344170Y-189865
X348615Y-180340
X356235Y-179070
X361500Y-180000
X363220Y-185420
X364490Y-181610
X366395Y-182245
X367030Y-187960
X367665Y-180340
X368300Y-186690
X368300Y-191770
X369570Y-181610
X369570Y-194945
X370205Y-179705
X370205Y-182245
X370205Y-186690
X371475Y-182880
X371475Y-198120
X372110Y-186055
X372110Y-189230
X374015Y-188595
X375285Y-188595
X378460Y-189230
X380365Y-189230
X381635Y-189865
X382905Y-196215
X384937Y-197104
X385445Y-194945
X385445Y-222250
X386080Y-221615
X387985Y-181610
X388620Y-221615
X389255Y-222250
X391160Y-180975
X391160Y-186690
X393700Y-179705
X398145Y-178435
X401955Y-234315
X402590Y-208915
X402590Y-210185
X402590Y-225425
X402590Y-233680
X403225Y-212090
X403225Y-222885
X403225Y-224790
X403225Y-233045
X407035Y-202565
X407670Y-200660
X407670Y-201930
X414020Y-219710
X414655Y-206375
X414655Y-208280
X414655Y-210185
X414655Y-220980
X414655Y-230505
X414655Y-231775
X417195Y-217170
X417830Y-228600
X421640Y-193040
T2
X233500Y-183000
X271500Y-179000
T3
X62230Y-178475
X62230Y-180975
X62230Y-184190
X62230Y-186690
X62230Y-189905
X62230Y-192405
X78740Y-190500
X78740Y-193675
X88900Y-190500
X88900Y-193675
X102870Y-194945
X113030Y-194945
X220800Y-210440
X220800Y-220600
X223600Y-210400
X223600Y-220560
X262930Y-186055
X264795Y-181610
X265430Y-186055
X269280Y-186055
X271780Y-186055
X274955Y-181610
X292100Y-187960
X294600Y-187960
X297815Y-190500
X297815Y-193000
X302260Y-193675
X304760Y-193675
X307975Y-192405
X309743Y-194173
X316865Y-189230
X319365Y-189230
X322580Y-187960
X322580Y-190500
X322580Y-193040
X322580Y-195580
X327025Y-176530
X327025Y-184150
X329565Y-176530
X329565Y-184150
X332105Y-176530
X332105Y-184150
X334645Y-176530
X334645Y-184150
X337185Y-176530
X337185Y-184150
X339725Y-176530
X339725Y-184150
X342265Y-176530
X342265Y-184150
X348615Y-176530
X348615Y-184150
X351155Y-176530
X351155Y-184150
X352425Y-196596
X353695Y-176530
X353695Y-184150
X356235Y-176530
X356235Y-184150
X358775Y-176530
X358775Y-184150
X361315Y-176530
X361315Y-184150
X362585Y-196596
X363855Y-176530
X363855Y-184150
X364744Y-196596
X369570Y-176530
X369570Y-184150
X372110Y-176530
X372110Y-184150
X374650Y-176530
X374650Y-184150
X374904Y-196596
X376555Y-194310
X377190Y-176530
X377190Y-184150
X379055Y-194310
X379730Y-176530
X379730Y-184150
X382270Y-176530
X382270Y-184150
X384810Y-176530
X384810Y-184150
X387350Y-176530
X387350Y-184150
X389890Y-176530
X389890Y-184150
X389890Y-189230
X389890Y-193675
X389890Y-196175
X392430Y-176530
X392430Y-184150
X394770Y-189230
X394970Y-176530
X394970Y-184150
X394970Y-193675
X394970Y-196175
X397510Y-176530
X397510Y-184150
X400050Y-176530
X400050Y-184150
X402590Y-176530
X402590Y-184150
T4
X82550Y-177800
X82550Y-180340
X88900Y-177800
X88900Y-180340
X278765Y-186055
X278765Y-192405
X281305Y-186055
X281305Y-192405
T5
X36830Y-192405
X39370Y-192405
X41910Y-192405
X48260Y-192405
X50800Y-192405
X53340Y-192405
X102870Y-177800
X102870Y-185400
X179150Y-184150
X181650Y-184150
X184150Y-184150
X192485Y-184150
X194985Y-184150
X197485Y-184150
X205820Y-184150
X208320Y-184150
X210820Y-184150
X219155Y-184150
X221655Y-184150
X224155Y-184150
X298800Y-180975
X300185Y-178135
X301570Y-180975
X302955Y-178135
X304340Y-180975
X305725Y-178135
X307110Y-180975
X308495Y-178135
X309880Y-180975
T6
X115570Y-175260
X115570Y-179760
X122070Y-175260
X122070Y-179760
X125730Y-175260
X125730Y-179760
X132230Y-175260
X132230Y-179760
X135890Y-175260
X135890Y-179760
X142390Y-175260
X142390Y-179760
X146050Y-175260
X146050Y-179760
X152550Y-175260
X152550Y-179760
X156210Y-175260
X156210Y-179760
X162710Y-175260
X162710Y-179760
X166370Y-175260
X166370Y-179760
X172870Y-175260
X172870Y-179760
T7
X291840Y-179555
X316840Y-179555
T5
X67055Y-180150G85X67055Y-182150
G05
X72755Y-178150G85X70755Y-178150
G05
X72755Y-184150G85X70755Y-184150
G05
T0
M30
