G04 #@! TF.FileFunction,Soldermask,Bot*
%FSLAX46Y46*%
G04 Gerber Fmt 4.6, Leading zero omitted, Abs format (unit mm)*
G04 Created by KiCad (PCBNEW 4.0.7) date 05/08/18 23:55:34*
%MOMM*%
%LPD*%
G01*
G04 APERTURE LIST*
%ADD10C,0.100000*%
%ADD11R,1.800000X1.800000*%
%ADD12C,1.800000*%
%ADD13C,4.200000*%
%ADD14R,1.595000X2.900000*%
%ADD15C,1.700000*%
%ADD16R,3.700000X3.700000*%
%ADD17O,1.800000X1.800000*%
%ADD18R,2.000000X2.000000*%
%ADD19C,2.000000*%
%ADD20C,2.200000*%
%ADD21R,2.200000X2.200000*%
%ADD22O,3.700000X3.700000*%
%ADD23O,2.000000X2.000000*%
%ADD24R,0.485000X1.300000*%
G04 APERTURE END LIST*
D10*
D11*
X309880000Y-180975000D03*
D12*
X307110000Y-180975000D03*
X304340000Y-180975000D03*
X301570000Y-180975000D03*
X298800000Y-180975000D03*
X308495000Y-178135000D03*
X305725000Y-178135000D03*
X302955000Y-178135000D03*
X300185000Y-178135000D03*
D13*
X316840000Y-179555000D03*
X291840000Y-179555000D03*
D14*
X104517500Y-233500000D03*
X101482500Y-233500000D03*
X104517500Y-230500000D03*
X101482500Y-230500000D03*
X198962500Y-206250000D03*
X195927500Y-206250000D03*
X198962500Y-209250000D03*
X195927500Y-209250000D03*
X198962500Y-212250000D03*
X195927500Y-212250000D03*
D15*
X389890000Y-189230000D03*
X394770000Y-189230000D03*
D12*
X389890000Y-193675000D03*
X389890000Y-196175000D03*
X394970000Y-193675000D03*
X394970000Y-196175000D03*
D16*
X71755000Y-184150000D03*
X71755000Y-178150000D03*
X67055000Y-181150000D03*
D14*
X104517500Y-206250000D03*
X101482500Y-206250000D03*
X104517500Y-209250000D03*
X101482500Y-209250000D03*
X104517500Y-212250000D03*
X101482500Y-212250000D03*
X104517500Y-217000000D03*
X101482500Y-217000000D03*
X104517500Y-220000000D03*
X101482500Y-220000000D03*
X104517500Y-223000000D03*
X101482500Y-223000000D03*
D11*
X369570000Y-184150000D03*
D17*
X402590000Y-176530000D03*
X372110000Y-184150000D03*
X400050000Y-176530000D03*
X374650000Y-184150000D03*
X397510000Y-176530000D03*
X377190000Y-184150000D03*
X394970000Y-176530000D03*
X379730000Y-184150000D03*
X392430000Y-176530000D03*
X382270000Y-184150000D03*
X389890000Y-176530000D03*
X384810000Y-184150000D03*
X387350000Y-176530000D03*
X387350000Y-184150000D03*
X384810000Y-176530000D03*
X389890000Y-184150000D03*
X382270000Y-176530000D03*
X392430000Y-184150000D03*
X379730000Y-176530000D03*
X394970000Y-184150000D03*
X377190000Y-176530000D03*
X397510000Y-184150000D03*
X374650000Y-176530000D03*
X400050000Y-184150000D03*
X372110000Y-176530000D03*
X402590000Y-184150000D03*
X369570000Y-176530000D03*
D18*
X82550000Y-180340000D03*
D19*
X82550000Y-177800000D03*
D14*
X104517500Y-227500000D03*
X101482500Y-227500000D03*
D11*
X348615000Y-184150000D03*
D17*
X363855000Y-176530000D03*
X351155000Y-184150000D03*
X361315000Y-176530000D03*
X353695000Y-184150000D03*
X358775000Y-176530000D03*
X356235000Y-184150000D03*
X356235000Y-176530000D03*
X358775000Y-184150000D03*
X353695000Y-176530000D03*
X361315000Y-184150000D03*
X351155000Y-176530000D03*
X363855000Y-184150000D03*
X348615000Y-176530000D03*
D20*
X166370000Y-179760000D03*
X166370000Y-175260000D03*
X172870000Y-179760000D03*
X172870000Y-175260000D03*
X156210000Y-179760000D03*
X156210000Y-175260000D03*
X162710000Y-179760000D03*
X162710000Y-175260000D03*
X146050000Y-179760000D03*
X146050000Y-175260000D03*
X152550000Y-179760000D03*
X152550000Y-175260000D03*
X135890000Y-179760000D03*
X135890000Y-175260000D03*
X142390000Y-179760000D03*
X142390000Y-175260000D03*
X125730000Y-179760000D03*
X125730000Y-175260000D03*
X132230000Y-179760000D03*
X132230000Y-175260000D03*
X115570000Y-179760000D03*
X115570000Y-175260000D03*
X122070000Y-179760000D03*
X122070000Y-175260000D03*
D19*
X179150000Y-184150000D03*
X181650000Y-184150000D03*
X184150000Y-184150000D03*
D13*
X177250000Y-177150000D03*
X186050000Y-177150000D03*
D21*
X102870000Y-177800000D03*
D20*
X102870000Y-185400000D03*
D12*
X316865000Y-189230000D03*
X319365000Y-189230000D03*
D18*
X278765000Y-192405000D03*
D19*
X281305000Y-192405000D03*
D18*
X278765000Y-186055000D03*
D19*
X281305000Y-186055000D03*
D18*
X88900000Y-180340000D03*
D19*
X88900000Y-177800000D03*
D12*
X113030000Y-194945000D03*
D17*
X102870000Y-194945000D03*
D14*
X199017500Y-217000000D03*
X195982500Y-217000000D03*
X198962500Y-220000000D03*
X195927500Y-220000000D03*
X198962500Y-223000000D03*
X195927500Y-223000000D03*
X199017500Y-227750000D03*
X195982500Y-227750000D03*
X198962500Y-230750000D03*
X195927500Y-230750000D03*
X198962500Y-233750000D03*
X195927500Y-233750000D03*
X226732500Y-212250000D03*
X229767500Y-212250000D03*
X226732500Y-209250000D03*
X229767500Y-209250000D03*
X226732500Y-206250000D03*
X229767500Y-206250000D03*
X226732500Y-223000000D03*
X229767500Y-223000000D03*
X226732500Y-220000000D03*
X229767500Y-220000000D03*
X226732500Y-217000000D03*
X229767500Y-217000000D03*
X226732500Y-233500000D03*
X229767500Y-233500000D03*
X226732500Y-230500000D03*
X229767500Y-230500000D03*
X226732500Y-227500000D03*
X229767500Y-227500000D03*
X321482500Y-212250000D03*
X324517500Y-212250000D03*
X321482500Y-209250000D03*
X324517500Y-209250000D03*
X321482500Y-206250000D03*
X324517500Y-206250000D03*
X321482500Y-223000000D03*
X324517500Y-223000000D03*
X321482500Y-220000000D03*
X324517500Y-220000000D03*
X321482500Y-217000000D03*
X324517500Y-217000000D03*
X321482500Y-233500000D03*
X324517500Y-233500000D03*
X321482500Y-230500000D03*
X324517500Y-230500000D03*
X321482500Y-227500000D03*
X324517500Y-227500000D03*
D12*
X362585000Y-196596000D03*
D17*
X352425000Y-196596000D03*
D12*
X223600000Y-210400000D03*
D17*
X223600000Y-220560000D03*
D12*
X264795000Y-181610000D03*
D17*
X274955000Y-181610000D03*
D12*
X374904000Y-196596000D03*
D17*
X364744000Y-196596000D03*
D12*
X220800000Y-220600000D03*
D17*
X220800000Y-210440000D03*
D12*
X78740000Y-193675000D03*
D17*
X88900000Y-193675000D03*
D12*
X78740000Y-190500000D03*
D17*
X88900000Y-190500000D03*
D14*
X407917500Y-205740000D03*
X404882500Y-205740000D03*
X407917500Y-208915000D03*
X404882500Y-208915000D03*
X407917500Y-212090000D03*
X404882500Y-212090000D03*
X407917500Y-216535000D03*
X404882500Y-216535000D03*
X407917500Y-219710000D03*
X404882500Y-219710000D03*
X407917500Y-222885000D03*
X404882500Y-222885000D03*
X407917500Y-227330000D03*
X404882500Y-227330000D03*
X407917500Y-230505000D03*
X404882500Y-230505000D03*
X407917500Y-233680000D03*
X404882500Y-233680000D03*
D19*
X192485000Y-184150000D03*
X194985000Y-184150000D03*
X197485000Y-184150000D03*
D13*
X190585000Y-177150000D03*
X199385000Y-177150000D03*
D19*
X205820000Y-184150000D03*
X208320000Y-184150000D03*
X210820000Y-184150000D03*
D13*
X203920000Y-177150000D03*
X212720000Y-177150000D03*
D19*
X219155000Y-184150000D03*
X221655000Y-184150000D03*
X224155000Y-184150000D03*
D13*
X217255000Y-177150000D03*
X226055000Y-177150000D03*
D11*
X327025000Y-184150000D03*
D17*
X342265000Y-176530000D03*
X329565000Y-184150000D03*
X339725000Y-176530000D03*
X332105000Y-184150000D03*
X337185000Y-176530000D03*
X334645000Y-184150000D03*
X334645000Y-176530000D03*
X337185000Y-184150000D03*
X332105000Y-176530000D03*
X339725000Y-184150000D03*
X329565000Y-176530000D03*
X342265000Y-184150000D03*
X327025000Y-176530000D03*
D22*
X50800000Y-175745000D03*
D18*
X48260000Y-192405000D03*
D23*
X50800000Y-192405000D03*
X53340000Y-192405000D03*
D24*
X390470000Y-216860000D03*
X390970000Y-216860000D03*
X391470000Y-216860000D03*
X391970000Y-216860000D03*
X392470000Y-216860000D03*
X392970000Y-216860000D03*
X393470000Y-216860000D03*
X393970000Y-216860000D03*
X394470000Y-216860000D03*
X394970000Y-216860000D03*
X395470000Y-216860000D03*
X395970000Y-216860000D03*
X396470000Y-216860000D03*
X396970000Y-216860000D03*
X397470000Y-216860000D03*
X397970000Y-216860000D03*
X398470000Y-216860000D03*
X398970000Y-216860000D03*
X399470000Y-216860000D03*
X399470000Y-222560000D03*
X398970000Y-222560000D03*
X398470000Y-222560000D03*
X397970000Y-222560000D03*
X397470000Y-222560000D03*
X396970000Y-222560000D03*
X396470000Y-222560000D03*
X395970000Y-222560000D03*
X395470000Y-222560000D03*
X394970000Y-222560000D03*
X394470000Y-222560000D03*
X393970000Y-222560000D03*
X393470000Y-222560000D03*
X392970000Y-222560000D03*
X392470000Y-222560000D03*
X391970000Y-222560000D03*
X391470000Y-222560000D03*
X390970000Y-222560000D03*
X390470000Y-222560000D03*
D22*
X39370000Y-175745000D03*
D18*
X36830000Y-192405000D03*
D23*
X39370000Y-192405000D03*
X41910000Y-192405000D03*
D11*
X265430000Y-186055000D03*
D12*
X262930000Y-186055000D03*
D11*
X376555000Y-194310000D03*
D12*
X379055000Y-194310000D03*
D11*
X271780000Y-186055000D03*
D12*
X269280000Y-186055000D03*
D11*
X62230000Y-192405000D03*
D12*
X62230000Y-189905000D03*
D11*
X62230000Y-180975000D03*
D12*
X62230000Y-178475000D03*
D11*
X62230000Y-186690000D03*
D12*
X62230000Y-184190000D03*
D11*
X302260000Y-193675000D03*
D12*
X304760000Y-193675000D03*
D10*
G36*
X306702208Y-192405000D02*
X307975000Y-191132208D01*
X309247792Y-192405000D01*
X307975000Y-193677792D01*
X306702208Y-192405000D01*
X306702208Y-192405000D01*
G37*
D12*
X309742767Y-194172767D03*
D11*
X297815000Y-190500000D03*
D12*
X297815000Y-193000000D03*
D11*
X292100000Y-187960000D03*
D12*
X294600000Y-187960000D03*
D11*
X322580000Y-195580000D03*
D17*
X322580000Y-193040000D03*
X322580000Y-190500000D03*
X322580000Y-187960000D03*
D13*
X22000000Y-174500000D03*
X22000000Y-235500000D03*
X429000000Y-174500000D03*
X429000000Y-235500000D03*
M02*
