G04 #@! TF.FileFunction,Soldermask,Top*
%FSLAX46Y46*%
G04 Gerber Fmt 4.6, Leading zero omitted, Abs format (unit mm)*
G04 Created by KiCad (PCBNEW 4.0.7) date 05/05/18 13:58:15*
%MOMM*%
%LPD*%
G01*
G04 APERTURE LIST*
%ADD10C,0.100000*%
%ADD11R,1.420000X2.900000*%
%ADD12R,1.595000X2.900000*%
%ADD13C,1.800000*%
%ADD14O,1.800000X1.800000*%
%ADD15C,1.700000*%
%ADD16R,2.740000X3.710000*%
%ADD17R,1.800000X1.800000*%
%ADD18R,3.700000X3.700000*%
%ADD19R,2.900000X1.595000*%
%ADD20O,3.700000X3.700000*%
%ADD21R,2.000000X2.000000*%
%ADD22O,2.000000X2.000000*%
%ADD23R,1.750000X0.800000*%
%ADD24C,2.000000*%
%ADD25R,1.700000X0.800000*%
%ADD26R,1.950000X0.650000*%
%ADD27C,6.600000*%
%ADD28C,1.000000*%
%ADD29C,3.400000*%
%ADD30C,2.200000*%
%ADD31C,4.200000*%
%ADD32R,2.200000X2.200000*%
%ADD33C,0.254000*%
G04 APERTURE END LIST*
D10*
D11*
X416570000Y-230500000D03*
X419430000Y-230500000D03*
D12*
X236517500Y-209333333D03*
X233482500Y-209333333D03*
D11*
X31430000Y-204000000D03*
X28570000Y-204000000D03*
X31430000Y-209333333D03*
X28570000Y-209333333D03*
X31430000Y-214666666D03*
X28570000Y-214666666D03*
X31496000Y-219964000D03*
X28636000Y-219964000D03*
X31430000Y-225333332D03*
X28570000Y-225333332D03*
X31430000Y-230666665D03*
X28570000Y-230666665D03*
X31430000Y-236000000D03*
X28570000Y-236000000D03*
X64749250Y-204038000D03*
X61889250Y-204038000D03*
X64749250Y-209371333D03*
X61889250Y-209371333D03*
X64737500Y-214668000D03*
X61877500Y-214668000D03*
X64749250Y-220037999D03*
X61889250Y-220037999D03*
X64738000Y-225371332D03*
X61878000Y-225371332D03*
X64738000Y-230704665D03*
X61878000Y-230704665D03*
X64738000Y-236038000D03*
X61878000Y-236038000D03*
X98045000Y-204000000D03*
X95185000Y-204000000D03*
X98045000Y-209333333D03*
X95185000Y-209333333D03*
X98045000Y-214666666D03*
X95185000Y-214666666D03*
X98045000Y-219999999D03*
X95185000Y-219999999D03*
X98000000Y-225333332D03*
X95140000Y-225333332D03*
X98000000Y-230666665D03*
X95140000Y-230666665D03*
X98000000Y-236000000D03*
X95140000Y-236000000D03*
X121430000Y-204000000D03*
X118570000Y-204000000D03*
X121430000Y-209333333D03*
X118570000Y-209333333D03*
X121430000Y-214666666D03*
X118570000Y-214666666D03*
X121430000Y-219999999D03*
X118570000Y-219999999D03*
X121384000Y-225298000D03*
X118524000Y-225298000D03*
X121430000Y-230666665D03*
X118570000Y-230666665D03*
X121384000Y-235966000D03*
X118524000Y-235966000D03*
X154737500Y-204000000D03*
X151877500Y-204000000D03*
X154737500Y-209333333D03*
X151877500Y-209333333D03*
X154737500Y-214666666D03*
X151877500Y-214666666D03*
X154737500Y-219999999D03*
X151877500Y-219999999D03*
X154715000Y-225333332D03*
X151855000Y-225333332D03*
X154715000Y-230666665D03*
X151855000Y-230666665D03*
X154715000Y-236000000D03*
X151855000Y-236000000D03*
X188045000Y-204000000D03*
X185185000Y-204000000D03*
X188045000Y-209333333D03*
X185185000Y-209333333D03*
X188045000Y-214666666D03*
X185185000Y-214666666D03*
X188045000Y-219999999D03*
X185185000Y-219999999D03*
X188000000Y-225333332D03*
X185140000Y-225333332D03*
X188000000Y-230666665D03*
X185140000Y-230666665D03*
X188000000Y-236000000D03*
X185140000Y-236000000D03*
X217490000Y-235585000D03*
X214630000Y-235585000D03*
X211140000Y-235585000D03*
X208280000Y-235585000D03*
X241430000Y-204000000D03*
X238570000Y-204000000D03*
X241430000Y-209333333D03*
X238570000Y-209333333D03*
X241430000Y-214666666D03*
X238570000Y-214666666D03*
X241430000Y-219999999D03*
X238570000Y-219999999D03*
X241430000Y-225333332D03*
X238570000Y-225333332D03*
X241430000Y-230666665D03*
X238570000Y-230666665D03*
X241429998Y-235999998D03*
X238569998Y-235999998D03*
X274737500Y-204000000D03*
X271877500Y-204000000D03*
X274737500Y-209333333D03*
X271877500Y-209333333D03*
X274737500Y-214666666D03*
X271877500Y-214666666D03*
X274737500Y-219999999D03*
X271877500Y-219999999D03*
X274715000Y-225333332D03*
X271855000Y-225333332D03*
X274715000Y-230666665D03*
X271855000Y-230666665D03*
X274715000Y-236000000D03*
X271855000Y-236000000D03*
X308045000Y-204000000D03*
X305185000Y-204000000D03*
X308045000Y-209333333D03*
X305185000Y-209333333D03*
X308045000Y-214666666D03*
X305185000Y-214666666D03*
X308045000Y-219999999D03*
X305185000Y-219999999D03*
X308000000Y-225333332D03*
X305140000Y-225333332D03*
X308000000Y-230666665D03*
X305140000Y-230666665D03*
X308000000Y-236000000D03*
X305140000Y-236000000D03*
X331430000Y-204000000D03*
X328570000Y-204000000D03*
X331430000Y-209333333D03*
X328570000Y-209333333D03*
X331430000Y-214666666D03*
X328570000Y-214666666D03*
X331430000Y-219999999D03*
X328570000Y-219999999D03*
X331430000Y-225333332D03*
X328570000Y-225333332D03*
X331430000Y-230666665D03*
X328570000Y-230666665D03*
X331430000Y-236000000D03*
X328570000Y-236000000D03*
X364810000Y-204000000D03*
X361950000Y-204000000D03*
X364737500Y-209333333D03*
X361877500Y-209333333D03*
X364737500Y-214666666D03*
X361877500Y-214666666D03*
X364737500Y-219999999D03*
X361877500Y-219999999D03*
X364715000Y-225333332D03*
X361855000Y-225333332D03*
X364715000Y-230666665D03*
X361855000Y-230666665D03*
X364715000Y-236000000D03*
X361855000Y-236000000D03*
X398045000Y-204000000D03*
X395185000Y-204000000D03*
X398045000Y-209333333D03*
X395185000Y-209333333D03*
X398045000Y-214666666D03*
X395185000Y-214666666D03*
X398045000Y-219999999D03*
X395185000Y-219999999D03*
X398000000Y-225333332D03*
X395140000Y-225333332D03*
X398000000Y-230666665D03*
X395140000Y-230666665D03*
X398000000Y-236000000D03*
X395140000Y-236000000D03*
X416570000Y-236000000D03*
X419430000Y-236000000D03*
D13*
X131445000Y-194310000D03*
D14*
X131445000Y-184150000D03*
D12*
X236517501Y-204000000D03*
X233482501Y-204000000D03*
X236517500Y-214666666D03*
X233482500Y-214666666D03*
X236517500Y-219999999D03*
X233482500Y-219999999D03*
X236517500Y-225333332D03*
X233482500Y-225333332D03*
X236517500Y-230666665D03*
X233482500Y-230666665D03*
X236517500Y-235999998D03*
X233482500Y-235999998D03*
X326517500Y-203999999D03*
X323482500Y-203999999D03*
X326517500Y-209333333D03*
X323482500Y-209333333D03*
X326517500Y-214666666D03*
X323482500Y-214666666D03*
X326517500Y-219999999D03*
X323482500Y-219999999D03*
X326517500Y-225333332D03*
X323482500Y-225333332D03*
X326517500Y-230666665D03*
X323482500Y-230666665D03*
X326517500Y-235999998D03*
X323482500Y-235999998D03*
D15*
X91440000Y-190500000D03*
X96320000Y-190500000D03*
D16*
X50875000Y-186055000D03*
X21515000Y-186055000D03*
D13*
X91440000Y-195580000D03*
X91440000Y-198080000D03*
X96520000Y-195580000D03*
X96520000Y-198080000D03*
D17*
X322580000Y-189230000D03*
D13*
X322580000Y-186730000D03*
D17*
X322580000Y-182880000D03*
D13*
X322580000Y-180380000D03*
D17*
X351790000Y-189230000D03*
D13*
X351790000Y-186730000D03*
D17*
X351790000Y-182880000D03*
D13*
X351790000Y-180380000D03*
D18*
X364490000Y-184150000D03*
X364490000Y-178150000D03*
X359790000Y-181150000D03*
D12*
X26517500Y-203999999D03*
X23482500Y-203999999D03*
X26517500Y-209333333D03*
X23482500Y-209333333D03*
X26517500Y-214666666D03*
X23482500Y-214666666D03*
X26517500Y-219999999D03*
X23482500Y-219999999D03*
X26517500Y-225333332D03*
X23482500Y-225333332D03*
X26517500Y-230666665D03*
X23482500Y-230666665D03*
D19*
X26500000Y-236017500D03*
X26500000Y-232982500D03*
D12*
X116517500Y-204000000D03*
X113482500Y-204000000D03*
X116517500Y-209333333D03*
X113482500Y-209333333D03*
X116517500Y-214666666D03*
X113482500Y-214666666D03*
X116517500Y-219999999D03*
X113482500Y-219999999D03*
X116517500Y-225333332D03*
X113482500Y-225333332D03*
X116517500Y-230666665D03*
X113482500Y-230666665D03*
X116517500Y-235999998D03*
X113482500Y-235999998D03*
D13*
X307975000Y-173990000D03*
D14*
X318135000Y-173990000D03*
D17*
X73025000Y-185420000D03*
D14*
X106045000Y-177800000D03*
X75565000Y-185420000D03*
X103505000Y-177800000D03*
X78105000Y-185420000D03*
X100965000Y-177800000D03*
X80645000Y-185420000D03*
X98425000Y-177800000D03*
X83185000Y-185420000D03*
X95885000Y-177800000D03*
X85725000Y-185420000D03*
X93345000Y-177800000D03*
X88265000Y-185420000D03*
X90805000Y-177800000D03*
X90805000Y-185420000D03*
X88265000Y-177800000D03*
X93345000Y-185420000D03*
X85725000Y-177800000D03*
X95885000Y-185420000D03*
X83185000Y-177800000D03*
X98425000Y-185420000D03*
X80645000Y-177800000D03*
X100965000Y-185420000D03*
X78105000Y-177800000D03*
X103505000Y-185420000D03*
X75565000Y-177800000D03*
X106045000Y-185420000D03*
X73025000Y-177800000D03*
D20*
X331470000Y-177650000D03*
D21*
X328930000Y-194310000D03*
D22*
X331470000Y-194310000D03*
X334010000Y-194310000D03*
D20*
X342900000Y-177650000D03*
D21*
X340360000Y-194310000D03*
D22*
X342900000Y-194310000D03*
X345440000Y-194310000D03*
D23*
X57625000Y-179070000D03*
X57625000Y-180340000D03*
X57625000Y-181610000D03*
X57625000Y-182880000D03*
X63025000Y-182880000D03*
X63025000Y-181610000D03*
X63025000Y-180340000D03*
X63025000Y-179070000D03*
D21*
X351790000Y-173990000D03*
D24*
X351790000Y-176530000D03*
D13*
X53975000Y-191135000D03*
D14*
X53975000Y-180975000D03*
D13*
X307975000Y-177165000D03*
D14*
X318135000Y-177165000D03*
D21*
X322580000Y-173990000D03*
D24*
X322580000Y-176530000D03*
D25*
X205580000Y-208915000D03*
X205580000Y-210185000D03*
X205580000Y-211455000D03*
X205580000Y-212725000D03*
X205580000Y-213995000D03*
X205580000Y-215265000D03*
X205580000Y-216535000D03*
X205580000Y-217805000D03*
X210980000Y-217805000D03*
X210980000Y-216535000D03*
X210980000Y-215265000D03*
X210980000Y-213995000D03*
X210980000Y-212725000D03*
X210980000Y-211455000D03*
X210980000Y-210185000D03*
X210980000Y-208915000D03*
D12*
X226447500Y-235585000D03*
X229482500Y-235585000D03*
D17*
X221615000Y-221615000D03*
D14*
X213995000Y-206375000D03*
X221615000Y-219075000D03*
X213995000Y-208915000D03*
X221615000Y-216535000D03*
X213995000Y-211455000D03*
X221615000Y-213995000D03*
X213995000Y-213995000D03*
X221615000Y-211455000D03*
X213995000Y-216535000D03*
X221615000Y-208915000D03*
X213995000Y-219075000D03*
X221615000Y-206375000D03*
X213995000Y-221615000D03*
D13*
X226060000Y-210185000D03*
D14*
X226060000Y-220345000D03*
D13*
X224155000Y-210185000D03*
D14*
X224155000Y-220345000D03*
D13*
X227965000Y-210185000D03*
D14*
X227965000Y-220345000D03*
D13*
X229870000Y-210185000D03*
D14*
X229870000Y-220345000D03*
D11*
X416400000Y-225425000D03*
X419260000Y-225425000D03*
X416400000Y-219710000D03*
X419260000Y-219710000D03*
X416400000Y-214630000D03*
X419260000Y-214630000D03*
X416400000Y-208915000D03*
X419260000Y-208915000D03*
X416400000Y-203835000D03*
X419260000Y-203835000D03*
D13*
X412750000Y-187960000D03*
D14*
X412750000Y-198120000D03*
D13*
X414655000Y-187960000D03*
D14*
X414655000Y-198120000D03*
D13*
X416560000Y-187960000D03*
D14*
X416560000Y-198120000D03*
D13*
X418465000Y-187960000D03*
D14*
X418465000Y-198120000D03*
D13*
X420370000Y-187960000D03*
D14*
X420370000Y-198120000D03*
D13*
X422275000Y-187960000D03*
D14*
X422275000Y-198120000D03*
D13*
X424180000Y-187960000D03*
D14*
X424180000Y-198120000D03*
D26*
X406825000Y-201075000D03*
X406825000Y-200425000D03*
X406825000Y-199775000D03*
X406825000Y-199125000D03*
X406825000Y-198475000D03*
X406825000Y-197825000D03*
X406825000Y-197175000D03*
X406825000Y-196525000D03*
X406825000Y-195875000D03*
X406825000Y-195225000D03*
X406825000Y-194575000D03*
X406825000Y-193925000D03*
X406825000Y-193275000D03*
X406825000Y-192625000D03*
X399625000Y-192625000D03*
X399625000Y-193275000D03*
X399625000Y-193925000D03*
X399625000Y-194575000D03*
X399625000Y-195225000D03*
X399625000Y-195875000D03*
X399625000Y-196525000D03*
X399625000Y-197175000D03*
X399625000Y-197825000D03*
X399625000Y-198475000D03*
X399625000Y-199125000D03*
X399625000Y-199775000D03*
X399625000Y-200425000D03*
X399625000Y-201075000D03*
D13*
X116840000Y-193040000D03*
D14*
X127000000Y-193040000D03*
D13*
X69215000Y-198120000D03*
D14*
X69215000Y-187960000D03*
D13*
X73025000Y-198120000D03*
D14*
X73025000Y-187960000D03*
D27*
X228500000Y-228500000D03*
D28*
X230900000Y-228500000D03*
X230197056Y-230197056D03*
X228500000Y-230900000D03*
X226802944Y-230197056D03*
X226100000Y-228500000D03*
X226802944Y-226802944D03*
X228500000Y-226100000D03*
X230197056Y-226802944D03*
D27*
X228500000Y-181500000D03*
D28*
X230900000Y-181500000D03*
X230197056Y-183197056D03*
X228500000Y-183900000D03*
X226802944Y-183197056D03*
X226100000Y-181500000D03*
X226802944Y-179802944D03*
X228500000Y-179100000D03*
X230197056Y-179802944D03*
D27*
X23000000Y-175500000D03*
D28*
X25400000Y-175500000D03*
X24697056Y-177197056D03*
X23000000Y-177900000D03*
X21302944Y-177197056D03*
X20600000Y-175500000D03*
X21302944Y-173802944D03*
X23000000Y-173100000D03*
X24697056Y-173802944D03*
D27*
X428000000Y-175500000D03*
D28*
X430400000Y-175500000D03*
X429697056Y-177197056D03*
X428000000Y-177900000D03*
X426302944Y-177197056D03*
X425600000Y-175500000D03*
X426302944Y-173802944D03*
X428000000Y-173100000D03*
X429697056Y-173802944D03*
D27*
X428000000Y-234500000D03*
D28*
X430400000Y-234500000D03*
X429697056Y-236197056D03*
X428000000Y-236900000D03*
X426302944Y-236197056D03*
X425600000Y-234500000D03*
X426302944Y-232802944D03*
X428000000Y-232100000D03*
X429697056Y-232802944D03*
D29*
X23000000Y-234500000D03*
D30*
X142240000Y-179760000D03*
X142240000Y-175260000D03*
X148740000Y-179760000D03*
X148740000Y-175260000D03*
X157480000Y-179760000D03*
X157480000Y-175260000D03*
X163980000Y-179760000D03*
X163980000Y-175260000D03*
X172720000Y-179760000D03*
X172720000Y-175260000D03*
X179220000Y-179760000D03*
X179220000Y-175260000D03*
X187960000Y-179760000D03*
X187960000Y-175260000D03*
X194460000Y-179760000D03*
X194460000Y-175260000D03*
X203200000Y-179760000D03*
X203200000Y-175260000D03*
X209700000Y-179760000D03*
X209700000Y-175260000D03*
X217805000Y-179760000D03*
X217805000Y-175260000D03*
X224305000Y-179760000D03*
X224305000Y-175260000D03*
X233680000Y-179760000D03*
X233680000Y-175260000D03*
X240180000Y-179760000D03*
X240180000Y-175260000D03*
D24*
X118190000Y-184785000D03*
X120690000Y-184785000D03*
X123190000Y-184785000D03*
D31*
X116290000Y-177785000D03*
X125090000Y-177785000D03*
D32*
X257155000Y-180340000D03*
D30*
X249555000Y-180340000D03*
D33*
G36*
X348373000Y-181873000D02*
X326127000Y-181873000D01*
X326127000Y-171127000D01*
X348373000Y-171127000D01*
X348373000Y-181873000D01*
X348373000Y-181873000D01*
G37*
X348373000Y-181873000D02*
X326127000Y-181873000D01*
X326127000Y-171127000D01*
X348373000Y-171127000D01*
X348373000Y-181873000D01*
M02*
