G04 #@! TF.FileFunction,Soldermask,Top*
%FSLAX46Y46*%
G04 Gerber Fmt 4.6, Leading zero omitted, Abs format (unit mm)*
G04 Created by KiCad (PCBNEW 4.0.7) date 05/08/18 23:55:34*
%MOMM*%
%LPD*%
G01*
G04 APERTURE LIST*
%ADD10C,0.100000*%
%ADD11R,1.800000X1.800000*%
%ADD12C,1.800000*%
%ADD13C,4.200000*%
%ADD14R,1.800000X1.050000*%
%ADD15R,1.700000X0.800000*%
%ADD16R,1.595000X2.900000*%
%ADD17C,1.700000*%
%ADD18R,2.740000X3.710000*%
%ADD19R,3.700000X3.700000*%
%ADD20O,1.800000X1.800000*%
%ADD21R,2.000000X2.000000*%
%ADD22C,2.000000*%
%ADD23C,2.200000*%
%ADD24R,2.200000X2.200000*%
%ADD25R,2.900000X1.595000*%
%ADD26O,3.700000X3.700000*%
%ADD27O,2.000000X2.000000*%
%ADD28R,1.300000X0.485000*%
%ADD29R,1.750000X0.800000*%
%ADD30R,0.800000X1.700000*%
%ADD31C,0.254000*%
G04 APERTURE END LIST*
D10*
D11*
X309880000Y-180975000D03*
D12*
X307110000Y-180975000D03*
X304340000Y-180975000D03*
X301570000Y-180975000D03*
X298800000Y-180975000D03*
X308495000Y-178135000D03*
X305725000Y-178135000D03*
X302955000Y-178135000D03*
X300185000Y-178135000D03*
D13*
X316840000Y-179555000D03*
X291840000Y-179555000D03*
D14*
X270913600Y-235022682D03*
X270913600Y-236772682D03*
X274413600Y-235022682D03*
X274413600Y-236772682D03*
X270913600Y-224356016D03*
X270913600Y-226106016D03*
X274413600Y-224356016D03*
X274413600Y-226106016D03*
X270936100Y-203022682D03*
X270936100Y-204772682D03*
X274436100Y-203022682D03*
X274436100Y-204772682D03*
X270936100Y-208356017D03*
X270936100Y-210106017D03*
X274436100Y-208356017D03*
X274436100Y-210106017D03*
D15*
X425610000Y-195580000D03*
X425610000Y-194310000D03*
X425610000Y-193040000D03*
X425610000Y-191770000D03*
X425610000Y-190500000D03*
X425610000Y-189230000D03*
X425610000Y-187960000D03*
X425610000Y-186690000D03*
X420210000Y-186690000D03*
X420210000Y-187960000D03*
X420210000Y-189230000D03*
X420210000Y-190500000D03*
X420210000Y-191770000D03*
X420210000Y-193040000D03*
X420210000Y-194310000D03*
X420210000Y-195580000D03*
D14*
X304221100Y-235022682D03*
X304221100Y-236772682D03*
X307721100Y-235022682D03*
X307721100Y-236772682D03*
D16*
X104517500Y-231500000D03*
X101482500Y-231500000D03*
X104517500Y-234500000D03*
X101482500Y-234500000D03*
X104517500Y-237500000D03*
X101482500Y-237500000D03*
X194517500Y-201000000D03*
X191482500Y-201000000D03*
X194517500Y-204000000D03*
X191482500Y-204000000D03*
X194517500Y-207000000D03*
X191482500Y-207000000D03*
X194517500Y-211750000D03*
X191482500Y-211750000D03*
X194517500Y-214750000D03*
X191482500Y-214750000D03*
D17*
X389890000Y-189230000D03*
X394770000Y-189230000D03*
D18*
X260180000Y-183000000D03*
X230820000Y-183000000D03*
D12*
X389890000Y-193675000D03*
X389890000Y-196175000D03*
X394970000Y-193675000D03*
X394970000Y-196175000D03*
D19*
X71755000Y-184150000D03*
X71755000Y-178150000D03*
X67055000Y-181150000D03*
D16*
X104517500Y-201000000D03*
X101482500Y-201000000D03*
X104517500Y-204000000D03*
X101482500Y-204000000D03*
X104517500Y-207000000D03*
X101482500Y-207000000D03*
X104517500Y-211750000D03*
X101482500Y-211750000D03*
X104517500Y-217750000D03*
X101482500Y-217750000D03*
X104517500Y-222250000D03*
X101482500Y-222250000D03*
X104517500Y-225250000D03*
X101482500Y-225250000D03*
X104517500Y-228250000D03*
X101482500Y-228250000D03*
D11*
X369570000Y-184150000D03*
D20*
X402590000Y-176530000D03*
X372110000Y-184150000D03*
X400050000Y-176530000D03*
X374650000Y-184150000D03*
X397510000Y-176530000D03*
X377190000Y-184150000D03*
X394970000Y-176530000D03*
X379730000Y-184150000D03*
X392430000Y-176530000D03*
X382270000Y-184150000D03*
X389890000Y-176530000D03*
X384810000Y-184150000D03*
X387350000Y-176530000D03*
X387350000Y-184150000D03*
X384810000Y-176530000D03*
X389890000Y-184150000D03*
X382270000Y-176530000D03*
X392430000Y-184150000D03*
X379730000Y-176530000D03*
X394970000Y-184150000D03*
X377190000Y-176530000D03*
X397510000Y-184150000D03*
X374650000Y-176530000D03*
X400050000Y-184150000D03*
X372110000Y-176530000D03*
X402590000Y-184150000D03*
X369570000Y-176530000D03*
D21*
X82550000Y-180340000D03*
D22*
X82550000Y-177800000D03*
D15*
X210025000Y-209550000D03*
X210025000Y-210820000D03*
X210025000Y-212090000D03*
X210025000Y-213360000D03*
X210025000Y-214630000D03*
X210025000Y-215900000D03*
X210025000Y-217170000D03*
X210025000Y-218440000D03*
X215425000Y-218440000D03*
X215425000Y-217170000D03*
X215425000Y-215900000D03*
X215425000Y-214630000D03*
X215425000Y-213360000D03*
X215425000Y-212090000D03*
X215425000Y-210820000D03*
X215425000Y-209550000D03*
D11*
X348615000Y-184150000D03*
D20*
X363855000Y-176530000D03*
X351155000Y-184150000D03*
X361315000Y-176530000D03*
X353695000Y-184150000D03*
X358775000Y-176530000D03*
X356235000Y-184150000D03*
X356235000Y-176530000D03*
X358775000Y-184150000D03*
X353695000Y-176530000D03*
X361315000Y-184150000D03*
X351155000Y-176530000D03*
X363855000Y-184150000D03*
X348615000Y-176530000D03*
D23*
X166370000Y-179760000D03*
X166370000Y-175260000D03*
X172870000Y-179760000D03*
X172870000Y-175260000D03*
X156210000Y-179760000D03*
X156210000Y-175260000D03*
X162710000Y-179760000D03*
X162710000Y-175260000D03*
X146050000Y-179760000D03*
X146050000Y-175260000D03*
X152550000Y-179760000D03*
X152550000Y-175260000D03*
X135890000Y-179760000D03*
X135890000Y-175260000D03*
X142390000Y-179760000D03*
X142390000Y-175260000D03*
X125730000Y-179760000D03*
X125730000Y-175260000D03*
X132230000Y-179760000D03*
X132230000Y-175260000D03*
X115570000Y-179760000D03*
X115570000Y-175260000D03*
X122070000Y-179760000D03*
X122070000Y-175260000D03*
D22*
X179150000Y-184150000D03*
X181650000Y-184150000D03*
X184150000Y-184150000D03*
D13*
X177250000Y-177150000D03*
X186050000Y-177150000D03*
D24*
X102870000Y-177800000D03*
D23*
X102870000Y-185400000D03*
D12*
X316865000Y-189230000D03*
X319365000Y-189230000D03*
D14*
X31750000Y-204875000D03*
X31750000Y-203125000D03*
X28250000Y-204875000D03*
X28250000Y-203125000D03*
X31750000Y-210208333D03*
X31750000Y-208458333D03*
X28250000Y-210208333D03*
X28250000Y-208458333D03*
X31750000Y-215541666D03*
X31750000Y-213791666D03*
X28250000Y-215541666D03*
X28250000Y-213791666D03*
X31816000Y-220839000D03*
X31816000Y-219089000D03*
X28316000Y-220839000D03*
X28316000Y-219089000D03*
X31750000Y-226208332D03*
X31750000Y-224458332D03*
X28250000Y-226208332D03*
X28250000Y-224458332D03*
X31750000Y-231541665D03*
X31750000Y-229791665D03*
X28250000Y-231541665D03*
X28250000Y-229791665D03*
X31750000Y-236875000D03*
X31750000Y-235125000D03*
X28250000Y-236875000D03*
X28250000Y-235125000D03*
X65069250Y-204913000D03*
X65069250Y-203163000D03*
X61569250Y-204913000D03*
X61569250Y-203163000D03*
X65069250Y-210246333D03*
X65069250Y-208496333D03*
X61569250Y-210246333D03*
X61569250Y-208496333D03*
X65057500Y-215543000D03*
X65057500Y-213793000D03*
X61557500Y-215543000D03*
X61557500Y-213793000D03*
X65069250Y-220912999D03*
X65069250Y-219162999D03*
X61569250Y-220912999D03*
X61569250Y-219162999D03*
X65058000Y-226246332D03*
X65058000Y-224496332D03*
X61558000Y-226246332D03*
X61558000Y-224496332D03*
X65058000Y-231579665D03*
X65058000Y-229829665D03*
X61558000Y-231579665D03*
X61558000Y-229829665D03*
X65058000Y-236913000D03*
X65058000Y-235163000D03*
X61558000Y-236913000D03*
X61558000Y-235163000D03*
X98365000Y-204875000D03*
X98365000Y-203125000D03*
X94865000Y-204875000D03*
X94865000Y-203125000D03*
X98365000Y-210208333D03*
X98365000Y-208458333D03*
X94865000Y-210208333D03*
X94865000Y-208458333D03*
X98365000Y-215541666D03*
X98365000Y-213791666D03*
X94865000Y-215541666D03*
X94865000Y-213791666D03*
X98365000Y-220874999D03*
X98365000Y-219124999D03*
X94865000Y-220874999D03*
X94865000Y-219124999D03*
X98320000Y-226208332D03*
X98320000Y-224458332D03*
X94820000Y-226208332D03*
X94820000Y-224458332D03*
X98320000Y-231541665D03*
X98320000Y-229791665D03*
X94820000Y-231541665D03*
X94820000Y-229791665D03*
X98320000Y-236875000D03*
X98320000Y-235125000D03*
X94820000Y-236875000D03*
X94820000Y-235125000D03*
X121750000Y-204875000D03*
X121750000Y-203125000D03*
X118250000Y-204875000D03*
X118250000Y-203125000D03*
X121750000Y-210208333D03*
X121750000Y-208458333D03*
X118250000Y-210208333D03*
X118250000Y-208458333D03*
X121750000Y-215541666D03*
X121750000Y-213791666D03*
X118250000Y-215541666D03*
X118250000Y-213791666D03*
X121750000Y-220874999D03*
X121750000Y-219124999D03*
X118250000Y-220874999D03*
X118250000Y-219124999D03*
X121704000Y-226173000D03*
X121704000Y-224423000D03*
X118204000Y-226173000D03*
X118204000Y-224423000D03*
X121750000Y-231541665D03*
X121750000Y-229791665D03*
X118250000Y-231541665D03*
X118250000Y-229791665D03*
X121704000Y-236841000D03*
X121704000Y-235091000D03*
X118204000Y-236841000D03*
X118204000Y-235091000D03*
X155057500Y-204875000D03*
X155057500Y-203125000D03*
X151557500Y-204875000D03*
X151557500Y-203125000D03*
X155057500Y-210208333D03*
X155057500Y-208458333D03*
X151557500Y-210208333D03*
X151557500Y-208458333D03*
X155057500Y-215541666D03*
X155057500Y-213791666D03*
X151557500Y-215541666D03*
X151557500Y-213791666D03*
X155057500Y-220874999D03*
X155057500Y-219124999D03*
X151557500Y-220874999D03*
X151557500Y-219124999D03*
X155035000Y-226208332D03*
X155035000Y-224458332D03*
X151535000Y-226208332D03*
X151535000Y-224458332D03*
X155035000Y-231541665D03*
X155035000Y-229791665D03*
X151535000Y-231541665D03*
X151535000Y-229791665D03*
X155035000Y-236875000D03*
X155035000Y-235125000D03*
X151535000Y-236875000D03*
X151535000Y-235125000D03*
X188365000Y-204875000D03*
X188365000Y-203125000D03*
X184865000Y-204875000D03*
X184865000Y-203125000D03*
X188365000Y-210208333D03*
X188365000Y-208458333D03*
X184865000Y-210208333D03*
X184865000Y-208458333D03*
X188365000Y-215541666D03*
X188365000Y-213791666D03*
X184865000Y-215541666D03*
X184865000Y-213791666D03*
X188365000Y-220874999D03*
X188365000Y-219124999D03*
X184865000Y-220874999D03*
X184865000Y-219124999D03*
X188320000Y-226208332D03*
X188320000Y-224458332D03*
X184820000Y-226208332D03*
X184820000Y-224458332D03*
X188320000Y-231541665D03*
X188320000Y-229791665D03*
X184820000Y-231541665D03*
X184820000Y-229791665D03*
X188320000Y-236875000D03*
X188320000Y-235125000D03*
X184820000Y-236875000D03*
X184820000Y-235125000D03*
X214310000Y-234710000D03*
X214310000Y-236460000D03*
X217810000Y-234710000D03*
X217810000Y-236460000D03*
X207960000Y-234710000D03*
X207960000Y-236460000D03*
X211460000Y-234710000D03*
X211460000Y-236460000D03*
X304221102Y-203022684D03*
X304221102Y-204772684D03*
X307721102Y-203022684D03*
X307721102Y-204772684D03*
X304221100Y-208356017D03*
X304221100Y-210106017D03*
X307721100Y-208356017D03*
X307721100Y-210106017D03*
X304221100Y-213689350D03*
X304221100Y-215439350D03*
X307721100Y-213689350D03*
X307721100Y-215439350D03*
X304221100Y-219022683D03*
X304221100Y-220772683D03*
X307721100Y-219022683D03*
X307721100Y-220772683D03*
X304221100Y-224356016D03*
X304221100Y-226106016D03*
X307721100Y-224356016D03*
X307721100Y-226106016D03*
X304221100Y-229689349D03*
X304221100Y-231439349D03*
X307721100Y-229689349D03*
X307721100Y-231439349D03*
X270936100Y-213689350D03*
X270936100Y-215439350D03*
X274436100Y-213689350D03*
X274436100Y-215439350D03*
X270913600Y-219022683D03*
X270913600Y-220772683D03*
X274413600Y-219022683D03*
X274413600Y-220772683D03*
X270913600Y-229689349D03*
X270913600Y-231439349D03*
X274413600Y-229689349D03*
X274413600Y-231439349D03*
X237651100Y-203022682D03*
X237651100Y-204772682D03*
X241151100Y-203022682D03*
X241151100Y-204772682D03*
X237651100Y-208356017D03*
X237651100Y-210106017D03*
X241151100Y-208356017D03*
X241151100Y-210106017D03*
X237651100Y-213689350D03*
X237651100Y-215439350D03*
X241151100Y-213689350D03*
X241151100Y-215439350D03*
X237606100Y-219022683D03*
X237606100Y-220772683D03*
X241106100Y-219022683D03*
X241106100Y-220772683D03*
X237606100Y-224356016D03*
X237606100Y-226106016D03*
X241106100Y-224356016D03*
X241106100Y-226106016D03*
X237606100Y-229689349D03*
X237606100Y-231439349D03*
X241106100Y-229689349D03*
X241106100Y-231439349D03*
X237606100Y-235022682D03*
X237606100Y-236772682D03*
X241106100Y-235022682D03*
X241106100Y-236772682D03*
X394898832Y-202975114D03*
X394898832Y-204725114D03*
X398398832Y-202975114D03*
X398398832Y-204725114D03*
X394898832Y-208308449D03*
X394898832Y-210058449D03*
X398398832Y-208308449D03*
X398398832Y-210058449D03*
X394898832Y-213641782D03*
X394898832Y-215391782D03*
X398398832Y-213641782D03*
X398398832Y-215391782D03*
X394898832Y-218975115D03*
X394898832Y-220725115D03*
X398398832Y-218975115D03*
X398398832Y-220725115D03*
X394898832Y-224308448D03*
X394898832Y-226058448D03*
X398398832Y-224308448D03*
X398398832Y-226058448D03*
X394898832Y-229641781D03*
X394898832Y-231391781D03*
X398398832Y-229641781D03*
X398398832Y-231391781D03*
X394898832Y-234975114D03*
X394898832Y-236725114D03*
X398398832Y-234975114D03*
X398398832Y-236725114D03*
X361630000Y-202875000D03*
X361630000Y-204625000D03*
X365130000Y-202875000D03*
X365130000Y-204625000D03*
X361591332Y-208250000D03*
X361591332Y-210000000D03*
X365091332Y-208250000D03*
X365091332Y-210000000D03*
X361613832Y-213641782D03*
X361613832Y-215391782D03*
X365113832Y-213641782D03*
X365113832Y-215391782D03*
X361591332Y-218975115D03*
X361591332Y-220725115D03*
X365091332Y-218975115D03*
X365091332Y-220725115D03*
X361591332Y-224308448D03*
X361591332Y-226058448D03*
X365091332Y-224308448D03*
X365091332Y-226058448D03*
X361591332Y-229641781D03*
X361591332Y-231391781D03*
X365091332Y-229641781D03*
X365091332Y-231391781D03*
X361518832Y-234975114D03*
X361518832Y-236725114D03*
X365018832Y-234975114D03*
X365018832Y-236725114D03*
D21*
X278765000Y-192405000D03*
D22*
X281305000Y-192405000D03*
D21*
X278765000Y-186055000D03*
D22*
X281305000Y-186055000D03*
D14*
X328398832Y-202975114D03*
X328398832Y-204725114D03*
X331898832Y-202975114D03*
X331898832Y-204725114D03*
X328398832Y-208350114D03*
X328398832Y-210100114D03*
X331898832Y-208350114D03*
X331898832Y-210100114D03*
X328398832Y-213600114D03*
X328398832Y-215350114D03*
X331898832Y-213600114D03*
X331898832Y-215350114D03*
X328398832Y-218975114D03*
X328398832Y-220725114D03*
X331898832Y-218975114D03*
X331898832Y-220725114D03*
X328398832Y-224350114D03*
X328398832Y-226100114D03*
X331898832Y-224350114D03*
X331898832Y-226100114D03*
X328398832Y-229600114D03*
X328398832Y-231350114D03*
X331898832Y-229600114D03*
X331898832Y-231350114D03*
X328398832Y-234975114D03*
X328398832Y-236725114D03*
X331898832Y-234975114D03*
X331898832Y-236725114D03*
D21*
X88900000Y-180340000D03*
D22*
X88900000Y-177800000D03*
D14*
X416080000Y-202960000D03*
X416080000Y-204710000D03*
X419580000Y-202960000D03*
X419580000Y-204710000D03*
X416080000Y-208040000D03*
X416080000Y-209790000D03*
X419580000Y-208040000D03*
X419580000Y-209790000D03*
X416080000Y-213755000D03*
X416080000Y-215505000D03*
X419580000Y-213755000D03*
X419580000Y-215505000D03*
X416080000Y-218835000D03*
X416080000Y-220585000D03*
X419580000Y-218835000D03*
X419580000Y-220585000D03*
X416080000Y-223915000D03*
X416080000Y-225665000D03*
X419580000Y-223915000D03*
X419580000Y-225665000D03*
X416080000Y-229630000D03*
X416080000Y-231380000D03*
X419580000Y-229630000D03*
X419580000Y-231380000D03*
X416080000Y-234710000D03*
X416080000Y-236460000D03*
X419580000Y-234710000D03*
X419580000Y-236460000D03*
D15*
X425610000Y-183515000D03*
X425610000Y-182245000D03*
X425610000Y-180975000D03*
X425610000Y-179705000D03*
X425610000Y-178435000D03*
X425610000Y-177165000D03*
X425610000Y-175895000D03*
X425610000Y-174625000D03*
X420210000Y-174625000D03*
X420210000Y-175895000D03*
X420210000Y-177165000D03*
X420210000Y-178435000D03*
X420210000Y-179705000D03*
X420210000Y-180975000D03*
X420210000Y-182245000D03*
X420210000Y-183515000D03*
D16*
X104517500Y-214750000D03*
X101482500Y-214750000D03*
D12*
X113030000Y-194945000D03*
D20*
X102870000Y-194945000D03*
D16*
X194517500Y-217750000D03*
X191482500Y-217750000D03*
X194517500Y-222250000D03*
X191482500Y-222250000D03*
X194517500Y-225250000D03*
X191482500Y-225250000D03*
X194517500Y-228250000D03*
X191482500Y-228250000D03*
X194517500Y-232000000D03*
X191482500Y-232000000D03*
X194517500Y-235000000D03*
X191482500Y-235000000D03*
X194517500Y-238000000D03*
X191482500Y-238000000D03*
D25*
X227330000Y-229622500D03*
X227330000Y-232657500D03*
X224155000Y-229622500D03*
X224155000Y-232657500D03*
X220980000Y-229622500D03*
X220980000Y-232657500D03*
X219075000Y-203587500D03*
X219075000Y-206622500D03*
X222250000Y-203587500D03*
X222250000Y-206622500D03*
X225425000Y-203587500D03*
X225425000Y-206622500D03*
X228600000Y-203587500D03*
X228600000Y-206622500D03*
D16*
X231482500Y-207000000D03*
X234517500Y-207000000D03*
X231482500Y-204000000D03*
X234517500Y-204000000D03*
X231482500Y-201000000D03*
X234517500Y-201000000D03*
X231482500Y-217500000D03*
X234517500Y-217500000D03*
X231482500Y-214500000D03*
X234517500Y-214500000D03*
X231482500Y-211500000D03*
X234517500Y-211500000D03*
X231482500Y-228200000D03*
X234517500Y-228200000D03*
X231482500Y-225250000D03*
X234517500Y-225250000D03*
X231482500Y-222250000D03*
X234517500Y-222250000D03*
X231482500Y-237900000D03*
X234517500Y-237900000D03*
X231482500Y-234900000D03*
X234517500Y-234900000D03*
X231482500Y-231900000D03*
X234517500Y-231900000D03*
X414902500Y-175260000D03*
X411867500Y-175260000D03*
X414902500Y-178435000D03*
X411867500Y-178435000D03*
X414902500Y-181610000D03*
X411867500Y-181610000D03*
X414902500Y-184785000D03*
X411867500Y-184785000D03*
X414902500Y-187960000D03*
X411867500Y-187960000D03*
X414902500Y-191135000D03*
X411867500Y-191135000D03*
X414902500Y-194310000D03*
X411867500Y-194310000D03*
X287267500Y-192405000D03*
X284232500Y-192405000D03*
X287267500Y-186055000D03*
X284232500Y-186055000D03*
X321482500Y-207000000D03*
X324517500Y-207000000D03*
X321482500Y-204000000D03*
X324517500Y-204000000D03*
X321482500Y-201000000D03*
X324517500Y-201000000D03*
X321482500Y-217500000D03*
X324517500Y-217500000D03*
X321482500Y-214500000D03*
X324517500Y-214500000D03*
X321482500Y-211500000D03*
X324517500Y-211500000D03*
X321482500Y-228250000D03*
X324517500Y-228250000D03*
X321482500Y-225250000D03*
X324517500Y-225250000D03*
X321482500Y-222250000D03*
X324517500Y-222250000D03*
X321482500Y-237500000D03*
X324517500Y-237500000D03*
X321482500Y-234500000D03*
X324517500Y-234500000D03*
X321482500Y-231500000D03*
X324517500Y-231500000D03*
D12*
X362585000Y-196596000D03*
D20*
X352425000Y-196596000D03*
D12*
X223600000Y-210400000D03*
D20*
X223600000Y-220560000D03*
D12*
X264795000Y-181610000D03*
D20*
X274955000Y-181610000D03*
D12*
X374904000Y-196596000D03*
D20*
X364744000Y-196596000D03*
D12*
X220800000Y-220600000D03*
D20*
X220800000Y-210440000D03*
D12*
X78740000Y-193675000D03*
D20*
X88900000Y-193675000D03*
D12*
X78740000Y-190500000D03*
D20*
X88900000Y-190500000D03*
D25*
X382905000Y-191522500D03*
X382905000Y-194557500D03*
D16*
X223767500Y-223520000D03*
X220732500Y-223520000D03*
X412997500Y-200660000D03*
X409962500Y-200660000D03*
X412997500Y-203835000D03*
X409962500Y-203835000D03*
X412997500Y-207010000D03*
X409962500Y-207010000D03*
X412997500Y-211455000D03*
X409962500Y-211455000D03*
X412997500Y-214630000D03*
X409962500Y-214630000D03*
X412997500Y-217805000D03*
X409962500Y-217805000D03*
X412997500Y-221615000D03*
X409962500Y-221615000D03*
X412997500Y-224790000D03*
X409962500Y-224790000D03*
X412997500Y-227965000D03*
X409962500Y-227965000D03*
X412997500Y-231140000D03*
X409962500Y-231140000D03*
X412997500Y-234315000D03*
X409962500Y-234315000D03*
X412997500Y-237490000D03*
X409962500Y-237490000D03*
D22*
X192485000Y-184150000D03*
X194985000Y-184150000D03*
X197485000Y-184150000D03*
D13*
X190585000Y-177150000D03*
X199385000Y-177150000D03*
D22*
X205820000Y-184150000D03*
X208320000Y-184150000D03*
X210820000Y-184150000D03*
D13*
X203920000Y-177150000D03*
X212720000Y-177150000D03*
D22*
X219155000Y-184150000D03*
X221655000Y-184150000D03*
X224155000Y-184150000D03*
D13*
X217255000Y-177150000D03*
X226055000Y-177150000D03*
D11*
X327025000Y-184150000D03*
D20*
X342265000Y-176530000D03*
X329565000Y-184150000D03*
X339725000Y-176530000D03*
X332105000Y-184150000D03*
X337185000Y-176530000D03*
X334645000Y-184150000D03*
X334645000Y-176530000D03*
X337185000Y-184150000D03*
X332105000Y-176530000D03*
X339725000Y-184150000D03*
X329565000Y-176530000D03*
X342265000Y-184150000D03*
X327025000Y-176530000D03*
D26*
X50800000Y-175745000D03*
D21*
X48260000Y-192405000D03*
D27*
X50800000Y-192405000D03*
X53340000Y-192405000D03*
D28*
X210510000Y-221560000D03*
X210510000Y-222060000D03*
X210510000Y-222560000D03*
X210510000Y-223060000D03*
X210510000Y-223560000D03*
X210510000Y-224060000D03*
X210510000Y-224560000D03*
X210510000Y-225060000D03*
X210510000Y-225560000D03*
X210510000Y-226060000D03*
X210510000Y-226560000D03*
X210510000Y-227060000D03*
X210510000Y-227560000D03*
X210510000Y-228060000D03*
X210510000Y-228560000D03*
X210510000Y-229060000D03*
X210510000Y-229560000D03*
X210510000Y-230060000D03*
X210510000Y-230560000D03*
X216210000Y-230560000D03*
X216210000Y-230060000D03*
X216210000Y-229560000D03*
X216210000Y-229060000D03*
X216210000Y-228560000D03*
X216210000Y-228060000D03*
X216210000Y-227560000D03*
X216210000Y-227060000D03*
X216210000Y-226560000D03*
X216210000Y-226060000D03*
X216210000Y-225560000D03*
X216210000Y-225060000D03*
X216210000Y-224560000D03*
X216210000Y-224060000D03*
X216210000Y-223560000D03*
X216210000Y-223060000D03*
X216210000Y-222560000D03*
X216210000Y-222060000D03*
X216210000Y-221560000D03*
D29*
X267800000Y-175095000D03*
X267800000Y-176365000D03*
X267800000Y-177635000D03*
X267800000Y-178905000D03*
X273200000Y-178905000D03*
X273200000Y-177635000D03*
X273200000Y-176365000D03*
X273200000Y-175095000D03*
D26*
X39370000Y-175745000D03*
D21*
X36830000Y-192405000D03*
D27*
X39370000Y-192405000D03*
X41910000Y-192405000D03*
D11*
X265430000Y-186055000D03*
D12*
X262930000Y-186055000D03*
D11*
X376555000Y-194310000D03*
D12*
X379055000Y-194310000D03*
D11*
X271780000Y-186055000D03*
D12*
X269280000Y-186055000D03*
D11*
X62230000Y-192405000D03*
D12*
X62230000Y-189905000D03*
D11*
X62230000Y-180975000D03*
D12*
X62230000Y-178475000D03*
D11*
X62230000Y-186690000D03*
D12*
X62230000Y-184190000D03*
D11*
X302260000Y-193675000D03*
D12*
X304760000Y-193675000D03*
D10*
G36*
X306702208Y-192405000D02*
X307975000Y-191132208D01*
X309247792Y-192405000D01*
X307975000Y-193677792D01*
X306702208Y-192405000D01*
X306702208Y-192405000D01*
G37*
D12*
X309742767Y-194172767D03*
D11*
X297815000Y-190500000D03*
D12*
X297815000Y-193000000D03*
D11*
X292100000Y-187960000D03*
D12*
X294600000Y-187960000D03*
D30*
X302260000Y-189390000D03*
X303530000Y-189390000D03*
X304800000Y-189390000D03*
X306070000Y-189390000D03*
X307340000Y-189390000D03*
X308610000Y-189390000D03*
X309880000Y-189390000D03*
X311150000Y-189390000D03*
X311150000Y-183990000D03*
X309880000Y-183990000D03*
X308610000Y-183990000D03*
X307340000Y-183990000D03*
X306070000Y-183990000D03*
X304800000Y-183990000D03*
X303530000Y-183990000D03*
X302260000Y-183990000D03*
D11*
X322580000Y-195580000D03*
D20*
X322580000Y-193040000D03*
X322580000Y-190500000D03*
X322580000Y-187960000D03*
D16*
X324732500Y-175260000D03*
X321697500Y-175260000D03*
D10*
G36*
X316987257Y-193016648D02*
X314936648Y-195067257D01*
X313808813Y-193939422D01*
X315859422Y-191888813D01*
X316987257Y-193016648D01*
X316987257Y-193016648D01*
G37*
G36*
X314841187Y-190870578D02*
X312790578Y-192921187D01*
X311662743Y-191793352D01*
X313713352Y-189742743D01*
X314841187Y-190870578D01*
X314841187Y-190870578D01*
G37*
D13*
X22000000Y-174500000D03*
X22000000Y-235500000D03*
X429000000Y-174500000D03*
X429000000Y-235500000D03*
D31*
G36*
X58373000Y-188873000D02*
X32127000Y-188873000D01*
X32127000Y-171127000D01*
X58373000Y-171127000D01*
X58373000Y-188873000D01*
X58373000Y-188873000D01*
G37*
X58373000Y-188873000D02*
X32127000Y-188873000D01*
X32127000Y-171127000D01*
X58373000Y-171127000D01*
X58373000Y-188873000D01*
M02*
